<?xml version="1.0" encoding="UTF-8"?>
<svg width="41mm" height="16mm" version="1.1" viewBox="0 0 41 16" xmlns="http://www.w3.org/2000/svg" xmlns:xlink="http://www.w3.org/1999/xlink">
<defs>
<linearGradient id="a" x1="107.03" x2="120.56" y1="139.24" y2="139.24" gradientTransform="translate(-32.026 -26.996)" gradientUnits="userSpaceOnUse">
<stop stop-color="#fff" offset="0"/>
<stop stop-color="#fff" stop-opacity="0" offset="1"/>
</linearGradient>
</defs>
<g transform="translate(-73.78 -104.07)">
<path transform="matrix(.041467 0 0 .041467 57.629 92.386)" d="m580 600-103.92-60v-120l103.92-60 103.92 60v120z" stroke="#000"/>
<path d="m81.68 109.39-2.4756 1.4307-0.0225 2.903 2.4531 1.4723 2.4756-1.4308 0.0225-2.9029z" fill="#fff" stroke="#000" stroke-width=".049293"/>
<path d="m81.68 110.22-1.7956 1.0367v2.0734l1.7956 1.0367 1.7956-1.0367v-2.0734z" stroke="#000" stroke-width=".041467"/>
<ellipse cx="81.771" cy="112.25" rx="6.6414" ry="6.9513" fill="url(#a)" stroke="#000" stroke-linecap="round" stroke-linejoin="round" stroke-miterlimit="10" stroke-width=".2" style="mix-blend-mode:color-burn"/>
<g stroke-width=".26458" aria-label="Bitba">
<path d="m91.882 116.12q-0.22225 0-0.48683-0.0106-0.254-0.0106-0.51858-0.0318-0.254-0.0212-0.508-0.0529-0.254-0.0318-0.46566-0.0847v-7.112q0.21167-0.0529 0.46566-0.0847t0.508-0.0529q0.26458-0.0212 0.51858-0.0318 0.254-0.0106 0.47625-0.0106 0.635 0 1.1853 0.0952 0.56092 0.0953 0.96308 0.32808 0.41275 0.22225 0.64558 0.59266 0.23283 0.37042 0.23283 0.91017 0 0.60325-0.28575 0.99483-0.28575 0.381-0.762 0.5715 0.64558 0.1905 1.0266 0.60324 0.381 0.41275 0.381 1.1642 0 1.1007-0.81491 1.6616-0.80433 0.55034-2.5612 0.55034zm-0.96308-3.4819v2.5823q0.11642 0.0106 0.27517 0.0212 0.13758 0.0106 0.3175 0.0212 0.1905 0 0.43392 0 0.45508 0 0.85725-0.0529 0.41275-0.0635 0.71966-0.21166 0.30692-0.14817 0.48683-0.41275 0.1905-0.26458 0.1905-0.66675 0-0.35983-0.13758-0.60325-0.13758-0.254-0.40217-0.40216-0.254-0.14817-0.61383-0.21167t-0.80433-0.0635zm0-0.8255h1.0795q0.381 0 0.71966-0.0529 0.33866-0.0529 0.58208-0.1905 0.254-0.13759 0.39158-0.35983 0.14817-0.22225 0.14817-0.56092 0-0.3175-0.14817-0.52916-0.14817-0.22225-0.41275-0.34925-0.254-0.13759-0.60325-0.20109-0.34925-0.0635-0.74083-0.0635t-0.61383 0.0106q-0.22225 0.0106-0.40216 0.0318z"/>
<path d="m97.629 116.05h-0.98425v-5.5033h0.98425zm-0.49742-6.4982q-0.26458 0-0.45508-0.16933-0.17992-0.17992-0.17992-0.47625t0.17992-0.46567q0.1905-0.17991 0.45508-0.17991 0.26458 0 0.4445 0.17991 0.1905 0.16934 0.1905 0.46567t-0.1905 0.47625q-0.17992 0.16933-0.4445 0.16933z"/>
<path d="m100.24 110.55h2.0849v0.8255h-2.0849v2.54q0 0.41275 0.0635 0.68791 0.0635 0.26459 0.1905 0.42334 0.127 0.14816 0.3175 0.21166t0.4445 0.0635q0.4445 0 0.70908-0.0953 0.27517-0.10583 0.381-0.14816l0.1905 0.81491q-0.14817 0.0741-0.51858 0.17992-0.37042 0.11641-0.84667 0.11641-0.56091 0-0.93133-0.13758-0.35983-0.14817-0.58208-0.43392-0.22225-0.28574-0.3175-0.69849-0.08467-0.42334-0.08467-0.97367v-4.9106l0.98424-0.16933z"/>
<path d="m104.56 110.79q0.17992-0.11642 0.53975-0.24342 0.37042-0.127 0.84667-0.127 0.59266 0 1.0477 0.21167 0.46567 0.21166 0.78317 0.59266t0.47625 0.91017q0.16933 0.52916 0.16933 1.1642 0 0.66675-0.20108 1.2065-0.1905 0.52917-0.55034 0.89959-0.35983 0.37041-0.86783 0.57149-0.50799 0.20109-1.143 0.20109-0.68792 0-1.2171-0.0952-0.52917-0.0953-0.86783-0.1905v-7.8846l0.98424-0.16933zm0 4.4026q0.14817 0.0423 0.41275 0.0847 0.27517 0.0318 0.67733 0.0318 0.79375 0 1.27-0.51859 0.47625-0.52916 0.47625-1.4922 0-0.42333-0.0847-0.79375-0.0847-0.37041-0.27516-0.635-0.1905-0.27516-0.49742-0.42333-0.29633-0.15875-0.71966-0.15875-0.40217 0-0.74083 0.13758-0.33867 0.13759-0.51859 0.28575z"/>
<path d="m111.67 115.34q0.34925 0 0.61383-0.0106 0.27517-0.0212 0.45508-0.0635v-1.6404q-0.10583-0.0529-0.34925-0.0847-0.23283-0.0423-0.5715-0.0423-0.22224 0-0.47624 0.0317-0.24342 0.0318-0.45509 0.13758-0.20108 0.0953-0.33866 0.27517-0.13758 0.16933-0.13758 0.45508 0 0.52917 0.33866 0.74083 0.33867 0.20109 0.92075 0.20109zm-0.0847-4.9318q0.59267 0 0.99483 0.15875 0.41275 0.14816 0.65617 0.43391 0.254 0.27517 0.35983 0.66675 0.10583 0.381 0.10583 0.84666v3.4396q-0.127 0.0212-0.35983 0.0635-0.22225 0.0318-0.508 0.0635t-0.62441 0.0529q-0.32809 0.0318-0.65617 0.0318-0.46566 0-0.85725-0.0953-0.39158-0.0952-0.67733-0.29633-0.28575-0.21167-0.44449-0.55033-0.15875-0.33867-0.15875-0.81491 0-0.45509 0.17991-0.78317 0.1905-0.32808 0.508-0.52916 0.3175-0.20109 0.74083-0.29634 0.42333-0.0952 0.889-0.0952 0.14816 0 0.30691 0.0212 0.15875 0.0106 0.29634 0.0423 0.14816 0.0212 0.254 0.0423 0.10583 0.0212 0.14816 0.0318v-0.27517q0-0.24341-0.0529-0.47625-0.0529-0.24341-0.1905-0.42333-0.13759-0.1905-0.381-0.29633-0.23284-0.11642-0.61383-0.11642-0.48684 0-0.85725 0.0741-0.35983 0.0635-0.53975 0.13759l-0.11642-0.81492q0.1905-0.0847 0.635-0.15875 0.4445-0.0847 0.96308-0.0847z"/>
</g>
</g>
</svg>
